<?xml version="1.0" encoding="utf-8"?>
<!-- Generator: Adobe Illustrator 25.3.0, SVG Export Plug-In . SVG Version: 6.00 Build 0)  -->
<svg version="1.1" id="Layer_1" xmlns="http://www.w3.org/2000/svg" xmlns:xlink="http://www.w3.org/1999/xlink" x="0px" y="0px"
	 viewBox="0 0 651.6 320.5" style="enable-background:new 0 0 651.6 320.5;" xml:space="preserve">
<style type="text/css">
	.st0{fill:#FF6F0F;}
	.st1{fill-rule:evenodd;clip-rule:evenodd;fill:#00A05B;}
</style>
<path class="st0" d="M115.7,58C64,58,22,99,22,150.8c0,71.6,94,109.5,93.7,109.4c-0.3,0.1,93.7-37.9,93.7-109.4
	C209.4,99.1,167.5,58,115.7,58L115.7,58z M115.7,210.1c-19.6,0-35.5-15.9-35.5-35.5c0-19.6,15.9-35.5,35.5-35.5
	c19.6,0,35.5,15.9,35.5,35.5c0,19.6-15.8,35.5-35.4,35.5C115.8,210.2,115.7,210.2,115.7,210.1L115.7,210.1z"/>
<g id="svgGroup">
	<path vector-effect="non-scaling-stroke" class="st1" d="M246.6,239.3v-34H280v-28.6h12.8c-4.9-2.5-9.4-5.8-13.4-9.7
		c-2.6-2.6-4.8-5.4-6.7-8.5c-3.7-6.1-6.1-12.9-6.8-20c-0.2-2.1-0.3-4.3-0.3-6.4c0-8.1,1.6-15.5,4.7-22s7.6-12.1,13.4-16.7
		c3.7-2.9,7.8-5.4,12.2-7.3c2.9-1.3,5.9-2.4,9-3.4c5.2-1.6,10.5-2.6,15.9-3.2c4-0.4,8-0.6,12-0.6c5.2,0,10.4,0.3,15.5,1.1
		c4.2,0.6,8.3,1.5,12.4,2.7c4.1,1.2,8.1,2.8,11.9,4.7c3.3,1.7,6.4,3.7,9.3,6c5.8,4.6,10.3,10.2,13.4,16.7s4.7,13.9,4.7,22
		c0,5-0.6,10-2,14.9c-1.2,4.1-2.9,7.9-5.1,11.5c-4.1,6.5-9.6,12-16.2,16c-1.3,0.8-2.6,1.5-3.9,2.2H386v28.2c3.5-0.2,7-0.5,10.5-0.9
		c1.3-0.2,2.6-0.4,3.9-0.6c2.6-0.4,5.1-1,7.7-1.7c1.6-0.5,3.2-1,4.7-1.6l10.6,31c-4.2,2.3-8.8,4.1-13.4,5.4c0,0,0,0-0.1,0
		c-4.1,1.1-8.4,1.8-12.6,2.2c-0.6,0.1-1.3,0.1-1.9,0.2c-3.2,0.3-6.5,0.4-9.7,0.5c-1.3,0-2.7,0-4,0c-0.8,0-1.6,0-2.4,0
		c-5.7-0.1-12.1-0.1-19-0.1H246.6z M461,233.5l-25.6-30.2c8.1-4.8,16-10.3,23.6-16.5c7.6-6.2,14.5-12.9,20.6-20.1
		c6.1-7.2,11.3-14.7,15.4-22.6c3.1-5.9,5.5-12.1,7.1-18.5c0.4-1.8,0.8-3.7,1.1-5.5H446v-33h99l-1,15.6c-0.9,14.5-3.7,28.4-8.4,41.5
		c-4.7,13.1-10.7,25.3-18.1,36.4c-7.4,11.1-15.9,21.2-25.6,30.1S471.9,227.2,461,233.5z M600,255.1h-38v-180h38V255.1z M302.6,132.1
		c0,1.5,0.1,3,0.4,4.4c0.4,1.8,1,3.5,2,5.1c1.6,2.6,3.8,4.7,6.5,6.3c1.7,1,3.5,1.8,5.4,2.4c1.4,0.5,2.8,0.8,4.2,1.1
		c2.8,0.6,5.7,0.9,8.6,1c1,0,2.1,0.1,3.1,0.1c4.1,0,8.1-0.4,11.8-1.1c1.7-0.3,3.3-0.8,4.9-1.3c1.6-0.6,3.2-1.3,4.7-2.2
		c2.7-1.6,4.8-3.7,6.4-6.3c1-1.6,1.7-3.4,2-5.2c0.3-1.4,0.4-2.8,0.4-4.3c0-1.5-0.1-3-0.4-4.4c-0.4-1.8-1-3.5-2-5.1
		c-1.6-2.6-3.7-4.7-6.4-6.4c-1.6-1-3.3-1.8-5-2.4c-1.5-0.5-3-0.9-4.6-1.2c-3.1-0.6-6.3-1-9.5-1.1c-0.8,0-1.5,0-2.3,0
		c-2.7,0-5.5,0.2-8.2,0.5c-1.2,0.2-2.3,0.3-3.5,0.6c-1.9,0.4-3.7,0.9-5.4,1.6c-1.4,0.6-2.8,1.2-4.2,2c-2.7,1.7-4.9,3.8-6.5,6.4
		c-1,1.6-1.7,3.4-2,5.2C302.7,129.2,302.6,130.7,302.6,132.1z M316,184.1v21.2h34v-21.4c-2.7,0.5-5.3,0.9-8,1.1c-0.1,0-0.2,0-0.3,0
		c-2.6,0.2-5.2,0.3-7.8,0.3c-0.4,0-0.8,0-1.1,0C326.8,185.3,321.2,184.9,316,184.1z"/>
</g>
</svg>
